# xmcd
#
# Track frame offsets:
#	150
#	15247
#	29882
#	47595
#	68819
#	85150
#	101099
#	125373
#	145051
#	163771
#	180937
#
# Disc length: 2666 seconds
#
# Revision: 1
# Processed by: cddbd v1.5.2PL0 Copyright (c) Steve Scherf et al.
# Submitted via: audiograbber 1.83.01
#
DISCID=890a680b
DTITLE=John Michael Montgomery - Time Flies
DYEAR=2008
DGENRE=Country
TTITLE0=What Did I Do
TTITLE1=Let's Get Lost
TTITLE2=If You Ever Went Away
TTITLE3=Forever
TTITLE4=With My Shirt On
TTITLE5=Mad Cowboy Disease
TTITLE6=Loving and Letting Go
TTITLE7=Fly On
TTITLE8=Drunkards Prayer
TTITLE9=All In A Day
TTITLE10=Brothers Till The End
EXTD=
EXTT0=
EXTT1=
EXTT2=
EXTT3=
EXTT4=
EXTT5=
EXTT6=
EXTT7=
EXTT8=
EXTT9=
EXTT10=
PLAYORDER=
